<svg xmlns="http://www.w3.org/2000/svg" width="500px" height="400px" xmlns:xlink="http://www.w3.org/1999/xlink" viewBox="0 0 500 400" preserveAspectRatio="xMidYMid meet" ><rect id="svgEditorBackground" x="0" y="0" width="500" height="400" style="fill: none; stroke: none;"/><rect x="197.2" y="48.2" style="stroke-width: 1px; stroke-dasharray: 2px, 2px;" stroke="black" id="e1_rectangle" width="90" height="62" fill="white"/><rect x="202.2" y="257.2" style="stroke-width: 1px; stroke-dasharray: 2px, 2px;" stroke="black" id="e2_rectangle" width="90" height="62" fill="white"/><rect x="370.2" y="143.2" style="stroke-width: 1px; stroke-dasharray: 2px, 2px;" stroke="black" id="e3_rectangle" width="90" height="62" fill="white"/><rect x="113.2" y="287.2" style="stroke-width: 1px; stroke-dasharray: 2px, 2px;" stroke="black" id="e4_rectangle" width="44" height="33" fill="white"/><polyline stroke="black" style="fill: none; stroke-width: 1px;" id="e6_polyline" points="287.2,80.2 339.2,80.2 339.2,92.2 338.2,170.2 369.2,169.2"/><polyline stroke="black" style="fill: none; stroke-width: 1px;" id="e7_polyline" points="291.2,289.2 334.2,289.2 337.2,188.2 370.2,188.2"/><line id="e8_line" x1="158.2" y1="302.2" x2="203.2" y2="302.2" stroke="black" style="stroke-width: 1px; fill: none;"/><line id="e9_line" x1="39.2" y1="59.2" x2="39.2" y2="59.2" stroke="black" style="stroke-width: 1px; fill: none;"/><line id="e10_line" x1="24.2" y1="92.2" x2="196.2" y2="93.2" stroke="black" style="stroke-width: 1px; fill: none;"/><line id="e11_line" x1="26.2" y1="67.2" x2="198.2" y2="68.2" stroke="black" style="stroke-width: 1px; fill: none;"/><polyline stroke="black" style="fill: none; stroke-width: 1px;" id="e14_polyline" points="199.2,280.2 165.2,280.2 163.2,101.2"/><line id="e16_line" x1="161.2" y1="81.2" x2="161.2" y2="68.2" stroke="black" style="stroke-width: 1px; fill: none;"/><path d="M161.20001220703125,81.19999694824219a10.571674346923828,10.571674346923828,0,1,0,1,21" style="fill: none; stroke-width: 1px;" stroke="black" id="e18_circleArc"/><line id="e19_line" x1="112.2" y1="305.2" x2="34.2" y2="305.2" stroke="black" style="stroke-width: 1px; fill: none;"/><circle id="e20_circle" cx="196.2" cy="92.2" style="stroke-width: 1px;" stroke="black" r="3" fill="black"/><circle id="e21_circle" cx="196.2" cy="67.2" style="stroke-width: 1px;" stroke="black" r="3" fill="black"/><circle id="e23_circle" cx="200.2" cy="279.2" style="stroke-width: 1px;" stroke="black" r="3" fill="black"/><circle id="e24_circle" cx="202.2" cy="301.2" style="stroke-width: 1px;" stroke="black" r="3" fill="black"/><circle id="e25_circle" cx="370.2" cy="169.2" style="stroke-width: 1px;" stroke="black" r="3" fill="black"/><circle id="e26_circle" cx="371.2" cy="188.2" style="stroke-width: 1px;" stroke="black" r="3" fill="black"/><line id="e27_line" x1="460.2" y1="175.2" x2="491.2" y2="175.2" stroke="black" style="stroke-width: 1px; fill: none;"/><text fill="black" style="font-family: Arial; font-size: 20px;" x="10.2" y="63.2" id="e28_texte"></text><text fill="black" style="font-family: Arial; font-size: 20px;" x="9.20001" y="70.2" id="e29_texte">A</text><text fill="black" style="font-family: Arial; font-size: 20px;" x="9.20001" y="98.2" id="e30_texte">B</text><text fill="black" style="font-family: Arial; font-size: 20px;" x="17.2" y="313.2" id="e31_texte">C</text></svg>