<svg xmlns="http://www.w3.org/2000/svg" width="300px" height="300px" xmlns:xlink="http://www.w3.org/1999/xlink" viewBox="0 0 300 300" preserveAspectRatio="xMidYMid meet" ><defs id="svgEditorDefs"><symbol id="263a" viewBox="0 0 64 64" preserveAspectRatio="xMidYMid meet"><rect x="0" y="0" width="64" height="64" style="stroke:none;fill:none;"/><g xmlns="http://www.w3.org/2000/svg"><circle cx="32" cy="32" fill="#ffdd67" r="30"/><g fill="#664e27"><circle cx="20.5" cy="25.592" r="4.5"/><circle cx="43.5" cy="25.592" r="4.5"/><path d="m52.891 34.5c-.686 4.537-3.387 8.824-7.248 11.754-1.934 1.463-4.166 2.555-6.498 3.244-2.344.701-4.73.99-7.172 1-4.705.027-9.746-1.283-13.621-4.24-3.863-2.928-6.564-7.221-7.242-11.76 2.256 3.938 5.359 7.107 8.975 9.135 3.627 2.049 7.705 2.865 11.941 2.867 4.131.004 8.287-.814 11.891-2.863 3.616-2.028 6.72-5.201 8.974-9.139"/></g></g></symbol><symbol id="2639" viewBox="0 0 64 64" preserveAspectRatio="xMidYMid meet"><rect x="0" y="0" width="64" height="64" style="stroke:none;fill:none;"/><g xmlns="http://www.w3.org/2000/svg"><circle cx="32" cy="32" fill="#ffdd67" r="30"/><g fill="#664e27"><circle cx="20.5" cy="22.592" r="4.5"/><circle cx="43.5" cy="22.592" r="4.5"/><path d="m17 46.5c2.285-15.783 27.741-15.818 30 0-5.766-10.509-24.24-10.515-30 0"/></g></g></symbol></defs><rect id="svgEditorBackground" x="0" y="0" width="300" height="300" style="fill: none; stroke: none;"/><g id="g_e6_svg"/><image x="66.2" y="48.2" id="e7_image" preserveAspectRatio="xMidYMid meet" xlink:href="http://draw-svg.appspot.com/svgedit/samples/png/joconde.png" width="1" height="4.21849e-11" stroke="black" style="stroke-width: 1px;" fill="khaki"/><use xlink:href="#2639" x="3.20001" y="0.199997" width="296" height="296" id="e10_emoji"/></svg>