<svg xmlns="http://www.w3.org/2000/svg" width="600px" height="500px" xmlns:xlink="http://www.w3.org/1999/xlink" viewBox="0 0 600 500" preserveAspectRatio="xMidYMid meet" ><rect id="svgEditorBackground" x="0" y="0" width="600" height="500" style="fill: none; stroke: none;"/><polyline stroke="black" style="fill: none; stroke-width: 1px;" id="e17_polyline" points="41.2,81.2 39.2,397.2 263.2,398.2"/><line id="e20_line" x1="40.2" y1="81.2" x2="158.2" y2="81.2" stroke="black" style="stroke-width: 1px; fill: none;"/><line id="e21_line" x1="238.2" y1="82.2" x2="296.2" y2="82.2" stroke="black" style="stroke-width: 1px; fill: none;"/><polyline stroke="black" style="fill: none; stroke-width: 1px;" id="e22_polyline" points="371.2,82.2 498.2,81.2 498.2,399.2 345.2,399.2"/><a id="e31_hyperlink" xlink:title="" xlink:href="" target="_blank"/><circle id="e32_circle" cx="275.898" cy="412.073" style="stroke-width: 1px;" stroke="black" r="7.81025" fill="black" transform="matrix(0.473139, 0, 0, 0.473139, 130.662, 203.232)"/><circle id="e33_circle" cx="450.754" cy="413.619" style="stroke-width: 1px;" stroke="black" r="7.81025" fill="black" transform="matrix(0.473139, 0, 0, 0.473139, 130.662, 203.232)"/><circle id="e35_circle" cx="512.047" cy="-256.375" style="stroke-width: 1px;" stroke="black" r="7.81025" fill="black" transform="matrix(0.473139, 0, 0, 0.473139, 130.662, 203.232)"/><circle id="e36_circle" cx="344.509" cy="-254.829" style="stroke-width: 1px;" stroke="black" r="7.81025" fill="black" transform="matrix(0.473139, 0, 0, 0.473139, 130.662, 203.232)"/><circle id="e37_circle" cx="61.8624" cy="-258.488" style="stroke-width: 1px;" stroke="black" r="7.81025" fill="black" transform="matrix(0.473139, 0, 0, 0.473139, 130.662, 203.232)"/><circle id="e38_circle" cx="234.605" cy="-254.829" style="stroke-width: 1px;" stroke="black" r="7.81025" fill="black" transform="matrix(0.473139, 0, 0, 0.473139, 130.662, 203.232)"/></svg>